<?xml version="1.0" encoding="UTF-8" standalone="no"?>
<!-- Created with Inkscape (http://www.inkscape.org/) -->

<svg
   width="256"
   height="256"
   viewBox="0 0 67.733333 67.733333"
   version="1.1"
   id="svg1"
   xml:space="preserve"
   sodipodi:docname="tf2patcher.svg"
   inkscape:version="1.4.3 (0d15f75042, 2025-12-25)"
   xmlns:inkscape="http://www.inkscape.org/namespaces/inkscape"
   xmlns:sodipodi="http://sodipodi.sourceforge.net/DTD/sodipodi-0.dtd"
   xmlns="http://www.w3.org/2000/svg"
   xmlns:svg="http://www.w3.org/2000/svg"><sodipodi:namedview
     id="namedview1"
     pagecolor="#505050"
     bordercolor="#eeeeee"
     borderopacity="1"
     inkscape:showpageshadow="0"
     inkscape:pageopacity="0"
     inkscape:pagecheckerboard="0"
     inkscape:deskcolor="#505050"
     inkscape:document-units="mm"
     inkscape:zoom="2.8284271"
     inkscape:cx="100.93949"
     inkscape:cy="128.87021"
     inkscape:window-width="1920"
     inkscape:window-height="1016"
     inkscape:window-x="0"
     inkscape:window-y="0"
     inkscape:window-maximized="1"
     inkscape:current-layer="layer1" /><defs
     id="defs1"><inkscape:path-effect
       down_right_point="33.668073,41.83299"
       down_left_point="18.346661,35.294553"
       up_right_point="37.506558,29.211529"
       up_left_point="25.893513,25.828457"
       effect="perspective-envelope"
       id="path-effect27"
       is_visible="true"
       lpeversion="1"
       deform_type="perspective"
       horizontal_mirror="false"
       vertical_mirror="false"
       overflow_perspective="false" /><inkscape:path-effect
       down_right_point="33.668073,41.83299"
       down_left_point="18.346661,35.294553"
       up_right_point="37.506558,29.211529"
       up_left_point="25.893513,25.828457"
       effect="perspective-envelope"
       id="path-effect24"
       is_visible="true"
       lpeversion="1"
       deform_type="perspective"
       horizontal_mirror="false"
       vertical_mirror="false"
       overflow_perspective="false" /></defs><g
     inkscape:label="Layer 1"
     inkscape:groupmode="layer"
     id="layer1"><path
       style="display:inline;fill:#390605;fill-opacity:1;stroke-width:0.264583"
       d="M 11.822955,36.986987 26.034555,20.472483 45.37823,28.87834 33.053671,47.625347 Z"
       id="path16"
       sodipodi:nodetypes="ccccc" /><path
       style="display:inline;fill:#ffffff;fill-opacity:1;stroke-width:0.246832"
       d="M 12.948547,36.789875 26.206707,21.38331 44.252638,29.225228 32.754919,46.71452 Z"
       id="path17"
       sodipodi:nodetypes="ccccc" /><path
       style="display:inline;fill:#d53c37;fill-opacity:1;stroke-width:0.231591"
       d="M 13.915014,36.620629 26.354522,22.165373 43.286171,29.523076 32.498402,45.932457 Z"
       id="path18"
       sodipodi:nodetypes="ccccc" /><path
       id="path23"
       style="display:inline;fill:#461513;stroke-width:0.264583"
       d="m 35.930135,34.395022 c -1.138458,3.743406 -6.147296,5.779938 -10.548505,3.901715 -4.021259,-1.716079 -4.898346,-5.682173 -2.673455,-8.472877 1.872237,-2.348366 5.556821,-3.304551 8.652942,-2.402599 3.302385,0.962039 5.503027,3.902613 4.569018,6.973761 z"
       inkscape:path-effect="#path-effect24"
       inkscape:original-d="m 34.904195,32.708454 a 5.9041114,5.9041114 0 0 1 -5.904111,5.904112 5.9041114,5.9041114 0 0 1 -5.904111,-5.904112 5.9041114,5.9041114 0 0 1 5.904111,-5.904111 5.9041114,5.9041114 0 0 1 5.904111,5.904111 z" /><path
       id="path26"
       style="display:inline;fill:#d53c37;fill-opacity:1;stroke-width:0.264583"
       d="m 35.930135,34.395022 c -1.138458,3.743406 -6.147296,5.779938 -10.548505,3.901715 -4.021259,-1.716079 -4.898346,-5.682173 -2.673455,-8.472877 1.872237,-2.348366 5.556821,-3.304551 8.652942,-2.402599 3.302385,0.962039 5.503027,3.902613 4.569018,6.973761 z"
       inkscape:path-effect="#path-effect27"
       inkscape:original-d="m 34.904195,32.708454 a 5.9041114,5.9041114 0 0 1 -5.904111,5.904112 5.9041114,5.9041114 0 0 1 -5.904111,-5.904112 5.9041114,5.9041114 0 0 1 5.904111,-5.904111 5.9041114,5.9041114 0 0 1 5.904111,5.904111 z"
       transform="matrix(0.36420841,0,0,0.36420841,18.440739,20.740788)" /><path
       style="display:inline;fill:#d53c37;fill-opacity:1;stroke-width:0.264583"
       d="M 23.231877,28.798326 36.480948,35.238848 35.330855,37.00999 21.851766,30.270447 Z"
       id="path27" /><path
       style="display:inline;fill:#d53c37;fill-opacity:1;stroke-width:0.264583"
       d="m 23.76092,37.585036 8.119657,-10.235827 1.748139,0.920075 -7.958642,10.350836 z"
       id="path28" /><path
       style="display:inline;fill:#310301;fill-opacity:1;stroke-width:0.264583"
       d="m 28.918761,18.37919 2.407186,1.138534 3.578248,4.684254 0.585534,0.422884 2.992718,4.001133 -0.06574,0.930842 3.35122,4.469061 c 0,0 1.581048,-0.94542 2.949799,0.269196 l 11.56782,14.675863 c 0,2.922083 -3.057282,4.876395 -5.911478,4.876395 L 38.965149,38.390102 c 0,0 -0.552045,-1.840148 0.690056,-2.806226 l -3.651402,-4.752918 -0.871899,-0.236925 -2.763555,-3.711512 -0.0015,-0.452269 -0.504207,-0.309032 -0.764444,-0.211441 z"
       id="path29"
       sodipodi:nodetypes="ccccccccccccccccccc" /><path
       style="display:inline;fill:#e9d8bf;fill-opacity:1;stroke-width:0.264583"
       d="m 29.421273,18.971192 1.695975,0.888525 3.575507,4.569968 c 0,0 -1.573568,0.169455 -2.212008,1.545153 l -1.045093,-0.540069 z"
       id="path30"
       sodipodi:nodetypes="cccccc" /><path
       style="fill:#e9d8bf;fill-opacity:1;stroke-width:0.264583"
       d="m 32.685404,26.575826 c 0,0 0.480247,-1.696558 2.400903,-1.754062 l 2.892653,3.747291 c 0,0 -1.786252,-0.09667 -2.49931,1.766478"
       id="path31"
       sodipodi:nodetypes="cccc" /><path
       style="fill:#e9d8bf;fill-opacity:1;stroke-width:0.264583"
       d="m 36.111764,30.332837 c 0,0 0.299028,-1.156034 1.564129,-1.150095 l 3.663164,4.879207 -1.477431,1.11605 z"
       id="path32"
       sodipodi:nodetypes="ccccc" /><path
       style="display:inline;fill:#d53c37;fill-opacity:1;stroke-width:0.257464"
       d="m 39.704802,38.469309 c -1.44356,-2.17136 2.773207,-5.454401 4.827273,-3.689678 l 11.288617,14.515827 c 0,0 -3.744754,0.627337 -5.165933,3.873185 z"
       id="path33"
       sodipodi:nodetypes="ccccc" /><path
       style="display:inline;fill:#ad2723;fill-opacity:1;stroke-width:0.257464"
       d="m 50.653548,53.1685 c 0,0 1.170699,-3.122643 5.165635,-3.873479 -1.219695,3.381116 -5.165635,3.873479 -5.165635,3.873479 z"
       id="path34"
       sodipodi:nodetypes="ccc" /><path
       style="fill:#ad2723;fill-opacity:1;stroke-width:0.257464"
       d="m 40.103217,39.012217 c 0.156665,-0.895404 0.931846,-0.91135 0.931846,-0.91135 l 9.268123,12.227379 c -0.79128,0.585661 -0.806719,1.282859 -0.806719,1.282859 z"
       id="path35"
       sodipodi:nodetypes="ccccc" /><path
       style="fill:#ad2723;fill-opacity:1;stroke-width:0.257464"
       d="m 41.753962,37.520328 c 0.29207,-1.066653 1.320467,-1.007333 1.320467,-1.007333 l 9.355163,12.199913 c -0.902059,0.213687 -1.275703,0.962561 -1.275703,0.962561 z"
       id="path36"
       sodipodi:nodetypes="ccccc" /><path
       style="fill:#ad2723;fill-opacity:1;stroke-width:0.257464"
       d="m 43.969658,36.087677 c 0.348823,-0.679468 1.146851,-0.552839 1.146851,-0.552839 l 9.573776,12.300081 c 0,0 -0.688414,-0.123214 -1.400567,0.470361 z"
       id="path37"
       sodipodi:nodetypes="ccccc" /></g></svg>
